<svg width="35" height="40" viewBox="0 0 35 40" fill="none" xmlns="http://www.w3.org/2000/svg">
<g clip-path="url(#clip0_44_493)">
<path d="M28.0259 0.120802L27.7764 0.0322593C27.4927 -0.0360532 27.1936 0.00581444 26.9395 0.149412C25.2298 0.847039 23.33 1.62684 21.4392 2.42195C21.0983 2.56514 21.0998 3.04758 21.441 3.18955L26.0281 5.09924C26.1041 5.13091 26.1691 5.18437 26.2149 5.2529C26.2606 5.32142 26.2851 5.40194 26.2852 5.48433C26.2875 6.9867 26.3075 8.39307 26.2887 9.89748C26.2876 9.97843 26.2629 10.0573 26.2177 10.1244C26.1725 10.1916 26.1086 10.2441 26.034 10.2755L13.9567 15.3605C13.6819 15.4762 13.3778 15.2743 13.3778 14.976L13.3783 3.65029C13.3783 3.21572 13.1352 2.88555 12.7702 2.70141C12.7352 2.68241 12.6994 2.66512 12.6628 2.64962L6.62441 0.0917847C6.46163 0.0227137 6.28518 -0.00807091 6.10863 0.00180253C5.93208 0.011676 5.76016 0.0619439 5.6061 0.148734C3.81968 0.878118 2.03621 1.61471 0.25573 2.3585C-0.0818967 2.49951 -0.0861001 2.97545 0.248408 3.12351L4.74373 5.1109C4.81759 5.14364 4.88037 5.1971 4.92446 5.2648C4.96856 5.3325 4.99206 5.41154 4.99214 5.49233V19.9468C5.02739 20.1045 5.09112 20.2397 5.17709 20.3513C5.26468 20.4975 5.40895 20.626 5.62563 20.7287L18.9083 27.0498L18.9799 27.0777C19.1286 27.1517 19.2925 27.1901 19.4586 27.1898L19.5359 27.1871C19.8103 27.166 20.0665 27.0419 20.2532 26.8396C20.4398 26.6373 20.5429 26.3719 20.5418 26.0967V21.6369C20.5418 21.4552 20.6593 21.2944 20.8325 21.2393L25.7509 19.6762C25.8134 19.6563 25.8798 19.6515 25.9445 19.6621C26.0092 19.6727 26.0706 19.6984 26.1235 19.7372C26.1764 19.7759 26.2195 19.8266 26.2492 19.8851C26.2788 19.9436 26.2943 20.0083 26.2942 20.0739L26.2884 39.2451C26.2884 39.328 26.3131 39.409 26.3593 39.4778C26.4055 39.5467 26.4711 39.6002 26.5478 39.6316L26.7753 39.7245C26.8487 39.7542 26.9243 39.7763 27.002 39.7908C27.314 39.8973 27.6539 39.8881 27.9596 39.7649L33.9817 37.3014C34.213 37.2003 34.3702 37.0869 34.4687 36.9593C34.6195 36.8007 34.7123 36.5917 34.7123 36.2925V3.65124C34.7123 3.32717 34.5646 3.06223 34.339 2.87294C34.2389 2.77909 34.1231 2.70363 33.9969 2.65002L28.0259 0.120802Z" fill="url(#paint0_linear_44_493)"/>
<path d="M13.4034 31.049C13.4041 30.9694 13.3821 30.8913 13.3399 30.8239C13.2977 30.7564 13.2372 30.7024 13.1653 30.6682L6.46297 27.483C6.33148 27.4277 6.19033 27.3989 6.04767 27.3984C5.90501 27.398 5.76367 27.4258 5.63181 27.4802C5.49996 27.5347 5.3802 27.6148 5.27947 27.7158C5.17874 27.8168 5.09902 27.9368 5.04493 28.0688C5.02324 28.1213 5.00566 28.1749 4.99219 28.2296V39.2432C4.99219 39.4095 5.09117 39.5599 5.24371 39.6259L5.59449 39.7775C5.63056 39.7922 5.66722 39.805 5.70446 39.8159C5.8507 39.8875 6.01045 39.9273 6.17318 39.9327C6.33592 39.938 6.49795 39.9089 6.64859 39.8471L12.619 37.4682C12.8347 37.3794 13.0192 37.2285 13.149 37.0348C13.2789 36.841 13.3483 36.6131 13.3485 36.3798C13.3515 36.3476 13.3529 36.3152 13.3526 36.2829L13.4034 31.049Z" fill="url(#paint1_linear_44_493)"/>
</g>
<defs>
<linearGradient id="paint0_linear_44_493" x1="1703.82" y1="171.856" x2="1703.82" y2="3818.46" gradientUnits="userSpaceOnUse">
<stop stop-color="#F1CB2B"/>
<stop offset="1" stop-color="#D62B5F"/>
</linearGradient>
<linearGradient id="paint1_linear_44_493" x1="1209.59" y1="-2540.58" x2="1209.59" y2="1106.02" gradientUnits="userSpaceOnUse">
<stop stop-color="#F1CB2B"/>
<stop offset="1" stop-color="#D62B5F"/>
</linearGradient>
<clipPath id="clip0_44_493">
<rect width="34.7119" height="40" fill="white"/>
</clipPath>
</defs>
</svg>
