<svg width="81" height="40" viewBox="0 0 81 40" fill="none" xmlns="http://www.w3.org/2000/svg">
<g clip-path="url(#clip0_44_444)">
<path d="M5.57426 36.0014L2.36426 0H37.6357L34.4214 35.9957L19.9785 40L5.57426 36.0014Z" fill="#E44F26"/>
<path d="M20 36.9396L31.6714 33.7038L34.4171 2.94385H20V36.9396Z" fill="#F1662A"/>
<path d="M20.0001 16.296H14.1573L13.7544 11.7746H20.0001V7.35889H8.92871L9.03443 8.5446L10.1187 20.7117H20.0001V16.296ZM20.0001 27.7632L19.9801 27.7689L15.063 26.4417L14.7487 22.9203H10.3159L10.9344 29.8517L19.9801 32.3632L20.0001 32.3575V27.7632Z" fill="#EBEBEB"/>
<path d="M19.9844 16.296V20.7117H25.4215L24.9101 26.4389L19.9844 27.7675V32.3617L29.0372 29.8517L29.1029 29.106L30.1401 17.4817L30.2487 16.296H19.9844ZM19.9844 7.35889V11.7746H30.6501L30.7387 10.7832L30.9401 8.5446L31.0458 7.35889H19.9844Z" fill="white"/>
</g>
<g clip-path="url(#clip1_44_444)">
<path d="M46.8792 35.6633L43.7373 0.422363H78.2623L75.1173 35.658L60.9789 39.5777L46.8792 35.6633Z" fill="#1572B6"/>
<path d="M61.0005 36.5818L72.4252 33.4143L75.113 3.30371H61.0005V36.5818Z" fill="#33A9DC"/>
<path d="M61.0005 16.0714H66.7199L67.1149 11.6454H61.0005V7.32324H71.8386L71.7349 8.48293L70.6724 20.3936H61.0005V16.0714Z" fill="white"/>
<path d="M61.0258 27.2964L61.0067 27.302L56.1933 26.0024L55.8855 22.5552H51.5474L52.1527 29.3417L61.0061 31.7989L61.0258 31.7933V27.2964Z" fill="#EBEBEB"/>
<path d="M66.352 20.2109L65.8314 25.9991L61.0107 27.3003V31.7972L69.8714 29.3416L69.9364 28.6112L70.6882 20.2109H66.352Z" fill="white"/>
<path d="M61.0149 7.32324V11.6454H50.5749L50.4883 10.6742L50.2914 8.48293L50.188 7.32324H61.0149ZM61.0002 16.072V20.3942H56.2474L56.1608 19.4229L55.9636 17.2317L55.8605 16.072H61.0002Z" fill="#EBEBEB"/>
</g>
<defs>
<clipPath id="clip0_44_444">
<rect width="40" height="40" fill="white"/>
</clipPath>
<clipPath id="clip1_44_444">
<rect width="40" height="40" fill="white" transform="translate(41)"/>
</clipPath>
</defs>
</svg>
