<svg width="34" height="34" viewBox="0 0 34 34" fill="none" xmlns="http://www.w3.org/2000/svg">
<g clip-path="url(#clip0_44_460)">
<path d="M0 0H33.7778V33.7778H0V0Z" fill="#F7DF1E"/>
<path d="M8.88148 28.2271L11.4663 26.6627C11.965 27.5469 12.4186 28.295 13.5068 28.295C14.5498 28.295 15.2076 27.887 15.2076 26.3V15.5072H18.3817V26.3449C18.3817 29.6325 16.4546 31.1291 13.6428 31.1291C11.1036 31.1291 9.6296 29.814 8.88135 28.2268M20.1059 27.8869L22.6904 26.3905C23.3708 27.5016 24.2551 28.3178 25.8194 28.3178C27.1348 28.3178 27.9734 27.6602 27.9734 26.7533C27.9734 25.665 27.1118 25.2794 25.6607 24.6448L24.8673 24.3044C22.5772 23.3297 21.0581 22.1052 21.0581 19.5205C21.0581 17.1397 22.8719 15.3257 25.7062 15.3257C27.7242 15.3257 29.1753 16.0287 30.2182 17.8652L27.7466 19.4525C27.2024 18.4776 26.6131 18.0922 25.7061 18.0922C24.7764 18.0922 24.1869 18.6817 24.1869 19.4525C24.1869 20.4047 24.7764 20.7904 26.1368 21.3799L26.9303 21.72C29.6285 22.8765 31.1476 24.0554 31.1476 26.708C31.1476 29.5651 28.903 31.1294 25.8874 31.1294C22.9399 31.1294 21.0353 29.7237 20.1057 27.887" fill="black"/>
</g>
<defs>
<clipPath id="clip0_44_460">
<rect width="33.7778" height="33.7778" fill="white"/>
</clipPath>
</defs>
</svg>
