<svg width="40" height="40" viewBox="0 0 40 40" fill="none" xmlns="http://www.w3.org/2000/svg">
<path d="M2.5 5V35C2.5 35.663 2.76339 36.2989 3.23223 36.7678C3.70107 37.2366 4.33696 37.5 5 37.5H35C35.663 37.5 36.2989 37.2366 36.7678 36.7678C37.2366 36.2989 37.5 35.663 37.5 35V5C37.5 4.33696 37.2366 3.70107 36.7678 3.23223C36.2989 2.76339 35.663 2.5 35 2.5H5C4.33696 2.5 3.70107 2.76339 3.23223 3.23223C2.76339 3.70107 2.5 4.33696 2.5 5ZM27.7962 15.1375C24.0787 15.67 23.3987 17.71 22.3713 20.7912C21.2212 24.2463 19.69 28.8363 12.8275 29.8125C12.4994 29.86 12.1651 29.8417 11.8442 29.7586C11.5232 29.6754 11.2221 29.5292 10.9583 29.3283C10.6945 29.1275 10.4734 28.8761 10.3079 28.5888C10.1424 28.3015 10.0358 27.9841 9.99437 27.6552C9.95292 27.3263 9.97744 26.9924 10.0665 26.673C10.1556 26.3537 10.3074 26.0553 10.5131 25.7953C10.7188 25.5353 10.9742 25.3189 11.2645 25.1587C11.5548 24.9985 11.8741 24.8979 12.2037 24.8625C15.9212 24.33 16.6012 22.29 17.6287 19.2087C18.7787 15.7537 20.31 11.1637 27.1725 10.1875C27.5006 10.14 27.8349 10.1583 28.1558 10.2414C28.4768 10.3246 28.7779 10.4708 29.0417 10.6717C29.3055 10.8725 29.5266 11.1239 29.6921 11.4112C29.8576 11.6985 29.9642 12.0159 30.0056 12.3448C30.0471 12.6737 30.0226 13.0076 29.9335 13.327C29.8444 13.6463 29.6926 13.9447 29.4869 14.2047C29.2812 14.4647 29.0258 14.6811 28.7355 14.8413C28.4452 15.0015 28.1259 15.1021 27.7962 15.1375Z" fill="#00BFA5"/>
</svg>
