<svg width="40" height="40" viewBox="0 0 40 40" fill="none" xmlns="http://www.w3.org/2000/svg">
<path d="M29.3151 28.785C29.5604 26.7434 29.487 26.4437 31.0076 26.7746L31.3936 26.8084C32.5629 26.8615 34.0926 26.6203 34.9914 26.2028C36.9261 25.305 38.0729 23.8065 36.1657 24.2C31.8145 25.0978 31.5154 23.6243 31.5154 23.6243C36.1101 16.8071 38.0307 8.15309 36.3726 6.03465C31.8507 0.256837 24.0236 2.98902 23.8926 3.05965L23.8507 3.06746C22.9911 2.88902 22.0289 2.78246 20.9479 2.76496C18.9789 2.73246 17.4848 3.28121 16.3514 4.14059C16.3514 4.14059 2.38793 -1.61223 3.03761 11.3753C3.17574 14.1381 6.99761 32.2809 11.5564 26.8009C13.2226 24.7971 14.8326 23.1028 14.8326 23.1028C15.632 23.6337 16.5895 23.905 17.5932 23.8075L17.6711 23.7412C17.6467 23.99 17.6573 24.2334 17.702 24.5215C16.5279 25.8337 16.8729 26.064 14.5251 26.5471C12.1495 27.0365 13.5451 27.9081 14.456 28.1359C15.5607 28.4121 18.1161 28.8034 19.8429 26.3865L19.7742 26.6621C20.2348 27.0309 20.2039 29.3112 20.2689 30.9403C20.3342 32.5696 20.4432 34.09 20.7754 34.9865C21.1076 35.8831 21.4995 38.1915 24.5851 37.5303C27.1639 36.979 29.1354 36.1837 29.3151 28.785Z" fill="black"/>
<path d="M23.5807 39.1423C22.216 39.1423 21.3273 38.6145 20.7876 38.1048C19.9729 37.3361 19.6498 36.3458 19.4567 35.7542L19.3732 35.5073C18.9845 34.4579 18.8526 32.947 18.7745 31.0014C18.7626 30.7092 18.7545 30.4083 18.7454 30.0892C18.7388 29.8558 18.7307 29.5629 18.7188 29.2567C18.2272 29.4911 17.7053 29.656 17.1682 29.7467C16.206 29.9111 15.1717 29.8579 14.0932 29.5883C13.3323 29.3979 12.5417 29.0036 12.091 28.3945C10.7776 29.5448 9.52478 29.3889 8.84228 29.1611C7.63822 28.7595 6.56072 27.6311 5.54791 25.712C4.82635 24.3448 4.12853 22.5636 3.47353 20.4173C2.33291 16.6798 1.60822 12.7433 1.54385 11.4508C1.34135 7.40545 2.43041 4.51232 4.7801 2.85263C8.48666 0.234507 14.1026 1.77419 16.1501 2.47326C17.5257 1.64419 19.1442 1.24076 20.9729 1.26982C21.9551 1.28576 22.8904 1.37201 23.7592 1.52701C24.6654 1.24201 26.4554 0.832945 28.5045 0.85857C32.2798 0.90357 35.4082 2.37482 37.551 5.11326C39.0804 7.06701 38.3242 11.1698 37.7376 13.4417C36.912 16.6373 35.4654 20.0361 33.6885 22.9948C34.171 22.9983 34.8701 22.9404 35.8638 22.7351C37.8245 22.3304 38.3979 23.3817 38.5535 23.8523C39.177 25.7404 36.467 27.1673 35.6217 27.5598C34.5385 28.0626 32.7726 28.3689 31.3263 28.3026L31.2632 28.2986L30.8832 28.2651L30.8457 28.582L30.8095 28.8917C30.7123 32.6414 30.1767 35.0161 29.0745 36.5851C27.9192 38.2301 26.3135 38.6911 24.8992 38.9942C24.4167 39.0973 23.9782 39.1423 23.5807 39.1423ZM20.7088 25.4951C21.5898 26.2001 21.667 27.5267 21.736 30.0058C21.7448 30.3151 21.7529 30.6079 21.7638 30.8814C21.797 31.7095 21.8748 33.6486 22.1785 34.4679C22.2213 34.5839 22.2598 34.7014 22.3004 34.8261C22.6388 35.8623 22.8085 36.382 24.272 36.0692C25.5004 35.8058 26.132 35.5695 26.6263 34.8658C27.3448 33.8426 27.7467 31.7845 27.8204 28.7486L29.3151 28.7848L27.8307 28.6067L27.8745 28.2361C28.0167 27.0142 28.1192 26.1317 28.9357 25.5479C29.591 25.0798 30.3376 25.1251 30.9323 25.2323C30.2788 24.7386 30.0982 24.1595 30.0501 23.922L29.9254 23.3079L30.2757 22.7883C32.2935 19.7945 33.9573 16.1151 34.841 12.6933C35.7492 9.17732 35.4723 7.31013 35.1954 6.95701C31.5301 2.27357 25.1742 4.20732 24.5104 4.42669L24.3982 4.48732L23.8357 4.59201L23.5476 4.53232C22.7532 4.36732 21.8707 4.27607 20.9248 4.26076C19.4385 4.23576 18.2395 4.58701 17.2563 5.33294L16.5742 5.85013L15.7826 5.52419C14.0913 4.83263 9.12385 3.44232 6.5026 5.29888C5.0476 6.32951 4.38478 8.34888 4.53228 11.3011C4.58103 12.2758 5.24322 15.9654 6.33572 19.5439C7.84541 24.4892 9.21728 26.132 9.7901 26.3229C9.8901 26.3567 10.1495 26.1551 10.4076 25.8451C11.4839 24.555 12.5983 23.2971 13.7495 22.0733L14.6151 21.1623L15.6617 21.8576C16.0835 22.1379 16.5488 22.297 17.0267 22.327L19.5226 20.1983L19.161 23.8883C19.1529 23.9711 19.1488 24.0839 19.1813 24.2933L19.2901 24.9926L18.8182 25.5201L18.7638 25.5814L20.1351 26.2142L20.7088 25.4951Z" fill="black"/>
<path d="M36.1662 24.2001C31.8146 25.0979 31.5155 23.6245 31.5155 23.6245C36.1102 16.807 38.0309 8.15263 36.3734 6.03482C31.8515 0.25732 24.0237 2.98951 23.893 3.06045L23.8509 3.06795C22.9912 2.88951 22.029 2.78326 20.9474 2.76576C18.9784 2.73357 17.4849 3.28201 16.3515 4.14138C16.3515 4.14138 2.38773 -1.61112 3.0371 11.3761C3.17523 14.1392 6.9971 32.282 11.5559 26.802C13.2221 24.7983 14.8318 23.1039 14.8318 23.1039C15.6315 23.6348 16.5887 23.9061 17.5921 23.8086L17.6702 23.7423C17.6459 23.9911 17.6571 24.2345 17.7015 24.5226C16.5271 25.8348 16.8721 26.0651 14.5243 26.5483C12.1487 27.0376 13.5443 27.9092 14.4555 28.137C15.5599 28.4133 18.1155 28.8045 19.8421 26.3876L19.773 26.6633C20.2334 27.032 20.5565 29.0608 20.5024 30.8998C20.4484 32.7389 20.4118 34.0017 20.7746 34.9879C21.1371 35.9742 21.4984 38.1929 24.5846 37.5317C27.1634 36.9792 28.4996 35.547 28.6859 33.1583C28.8177 31.4598 29.1162 31.7111 29.1352 30.1926L29.3749 29.4739C29.6512 27.1717 29.4187 26.4292 31.0077 26.7745L31.3937 26.8083C32.563 26.8614 34.0934 26.6201 34.9918 26.2026C36.9262 25.3054 38.0734 23.8067 36.1662 24.2001Z" fill="#336791"/>
<path d="M23.7367 38.2208C21.1642 38.2208 20.3492 36.1836 20.0158 35.3504C19.5277 34.1295 19.4224 29.3914 19.5311 25.5058C19.5327 25.4402 19.5473 25.3757 19.574 25.3158C19.6006 25.2559 19.6389 25.2019 19.6865 25.1569C19.7342 25.1119 19.7903 25.0767 19.8515 25.0535C19.9128 25.0302 19.9781 25.0193 20.0436 25.0214C20.1091 25.0232 20.1735 25.0378 20.2333 25.0645C20.2931 25.0913 20.347 25.1295 20.392 25.1771C20.437 25.2246 20.4721 25.2806 20.4955 25.3418C20.5188 25.403 20.5299 25.4681 20.528 25.5336C20.4027 30.0151 20.5805 34.0764 20.9417 34.9801C21.5055 36.3892 22.3605 37.6217 24.7777 37.1039C27.0724 36.6117 27.9317 35.7417 28.3145 33.5226C28.6083 31.8198 29.1892 26.9754 29.2608 26.0195C29.2656 25.9542 29.2832 25.8904 29.3127 25.8319C29.3421 25.7734 29.3829 25.7213 29.4325 25.6786C29.4822 25.6359 29.5397 25.6033 29.602 25.5829C29.6642 25.5625 29.7299 25.5545 29.7952 25.5595C29.927 25.5695 30.0494 25.6314 30.1357 25.7316C30.2219 25.8317 30.2649 25.962 30.2552 26.0939C30.1805 27.0892 29.6024 31.9242 29.2974 33.6923C28.8455 36.3133 27.677 37.502 24.9867 38.0789C24.5295 38.1767 24.1142 38.2204 23.7367 38.2208ZM9.78798 28.2704C9.56312 28.2697 9.33985 28.2328 9.12673 28.1611C7.4558 27.6036 5.86423 24.8823 4.39611 20.072C3.27861 16.4104 2.57048 12.5886 2.5083 11.3464C2.32423 7.66388 3.27236 5.05857 5.32705 3.60325C9.39173 0.723254 16.2295 3.46575 16.5186 3.58388C16.6411 3.6339 16.7386 3.73051 16.7899 3.85247C16.8411 3.97443 16.8418 4.11174 16.7917 4.23419C16.7417 4.35665 16.6451 4.45422 16.5231 4.50544C16.4012 4.55666 16.2639 4.55733 16.1414 4.50732C16.0755 4.48044 9.51861 1.85357 5.90142 4.41825C4.14455 5.66388 3.33798 7.97826 3.50392 11.2967C3.55611 12.3433 4.21767 16.0733 5.34955 19.7808C6.66017 24.0751 8.15173 26.7848 9.44205 27.2151C9.64455 27.2826 10.2608 27.4879 11.1417 26.4286C12.169 25.1947 13.2349 23.9935 14.3377 22.8267C14.4299 22.7347 14.5546 22.6824 14.6849 22.6811C14.8152 22.6798 14.9409 22.7295 15.035 22.8197C15.1291 22.9099 15.1841 23.0333 15.1884 23.1636C15.1926 23.2938 15.1457 23.4206 15.0577 23.5167C15.0427 23.5323 13.543 25.1001 11.9086 27.0664C11.1345 27.9973 10.3927 28.2704 9.78798 28.2704ZM31.4845 24.0689C31.3941 24.0688 31.3055 24.0441 31.228 23.9975C31.1506 23.9508 31.0872 23.8841 31.0448 23.8042C31.0024 23.7244 30.9824 23.6346 30.9871 23.5443C30.9918 23.454 31.021 23.3667 31.0714 23.2917C35.7161 16.3995 37.3464 8.07169 35.9502 6.28732C34.1927 4.04169 31.7111 2.86888 28.5739 2.80107C26.2511 2.75107 24.4049 3.34419 24.103 3.44763L24.027 3.47857C23.7236 3.57388 23.4908 3.40763 23.403 3.21325C23.3529 3.10189 23.3453 2.97605 23.3817 2.85948C23.418 2.7429 23.4957 2.64365 23.6002 2.58044C23.6145 2.572 23.6602 2.55263 23.7342 2.52544C24.247 2.33763 26.1214 1.77513 28.443 1.80169C31.9142 1.83857 34.7817 3.177 36.7349 5.67294C37.6589 6.85388 37.6611 9.5745 36.7408 13.1376C35.8027 16.7704 34.0374 20.6745 31.898 23.8492C31.8024 23.992 31.6449 24.0689 31.4845 24.0689ZM31.722 27.2595C30.9289 27.2595 30.218 27.1476 29.7924 26.8926C29.3549 26.6304 29.2714 26.2742 29.2605 26.0851C29.1411 23.9883 30.298 23.6233 30.888 23.4567C30.8058 23.3323 30.6889 23.1861 30.568 23.0351C30.2239 22.6051 29.7527 22.0164 29.3895 21.1358C29.3327 20.9983 29.1545 20.6786 28.9483 20.3083C27.8299 18.3026 25.5027 14.1292 26.9977 11.992C27.6895 11.0029 29.0674 10.6136 31.0974 10.8308C30.5002 9.01138 27.6564 3.32013 20.9086 3.2095C18.8792 3.17575 17.2149 3.79982 15.9642 5.06263C13.1642 7.89044 13.2655 13.007 13.267 13.0583C13.2688 13.1237 13.2576 13.1889 13.2341 13.25C13.2107 13.3111 13.1754 13.367 13.1303 13.4145C13.0853 13.4621 13.0313 13.5002 12.9715 13.5269C12.9117 13.5535 12.8472 13.5681 12.7817 13.5698C12.7163 13.5715 12.6511 13.5604 12.59 13.5369C12.5289 13.5134 12.4729 13.4782 12.4254 13.4331C12.3779 13.388 12.3398 13.3341 12.3131 13.2743C12.2865 13.2144 12.2719 13.15 12.2702 13.0845C12.2639 12.8573 12.1595 7.48794 15.2558 4.36075C16.7049 2.89732 18.6124 2.17482 20.9252 2.21263C25.242 2.28357 28.0208 4.47825 29.5914 6.30669C31.3036 8.2995 32.143 10.4976 32.212 11.2314C32.2636 11.777 31.872 11.8861 31.793 11.9023L31.613 11.9064C29.6208 11.5873 28.3427 11.8089 27.8142 12.5639C26.677 14.1892 28.8786 18.137 29.8186 19.8229C30.0586 20.2529 30.2317 20.5639 30.3111 20.7558C30.6199 21.5045 31.0227 22.0076 31.3461 22.412C31.6308 22.7676 31.8774 23.0761 31.9655 23.4379C32.0064 23.5098 32.5874 24.3692 36.0345 23.6576C36.8986 23.4795 37.4167 23.6317 37.5752 24.1108C37.8867 25.0529 36.1386 26.152 35.1708 26.6014C34.3036 27.0045 32.9195 27.2595 31.722 27.2595ZM30.2545 26.0029C30.3639 26.1133 30.9111 26.3036 32.0442 26.2548C33.0517 26.2117 34.1142 25.9926 34.7517 25.6967C35.567 25.3179 36.1114 24.8945 36.3933 24.6054L36.237 24.6342C34.033 25.0892 32.4739 25.0286 31.6033 24.4539C31.5447 24.4153 31.4884 24.3735 31.4345 24.3286C31.3402 24.3658 31.253 24.3901 31.1908 24.4076C30.697 24.5461 30.1864 24.6895 30.2545 26.0029ZM16.0164 28.7889C15.4689 28.7889 14.8927 28.7142 14.3042 28.567C13.6945 28.4145 12.6667 27.9554 12.6824 27.2014C12.7002 26.3554 13.9305 26.1017 14.3936 26.0064C16.0667 25.6617 16.1758 25.5236 16.6986 24.8595C16.8511 24.6661 17.0408 24.4251 17.2995 24.1364C17.6836 23.7064 18.1033 23.4886 18.547 23.4886C18.8561 23.4886 19.1095 23.5933 19.277 23.6629C19.8108 23.8842 20.2561 24.4192 20.4392 25.0589C20.6045 25.6361 20.5255 26.1917 20.2174 26.6233C19.2058 28.0398 17.753 28.7889 16.0164 28.7889ZM13.7595 27.2442C13.9099 27.3604 14.2111 27.5158 14.5464 27.5995C15.0561 27.727 15.5505 27.7917 16.0167 27.7917C17.4374 27.7917 18.578 27.2036 19.4064 26.0436C19.5792 25.8017 19.5274 25.4945 19.4811 25.3329C19.3842 24.9945 19.1436 24.6867 18.8958 24.5839C18.7614 24.5283 18.6499 24.4858 18.5474 24.4858C18.4924 24.4858 18.3249 24.4858 18.043 24.8011C17.8484 25.0198 17.6615 25.2451 17.4824 25.4767C16.8311 26.3036 16.5327 26.5842 14.5952 26.9833C14.1224 27.0801 13.8799 27.1789 13.7595 27.2442ZM17.5936 24.9442C17.4746 24.944 17.3595 24.9012 17.2693 24.8237C17.179 24.7461 17.1195 24.6387 17.1014 24.5211C17.0889 24.4383 17.0806 24.355 17.0764 24.2714C15.8064 24.2476 14.5811 23.7026 13.6508 22.732C12.4745 21.5048 11.9392 19.8045 12.1824 18.0673C12.4464 16.1808 12.3477 14.5154 12.2945 13.6208C12.2799 13.372 12.2692 13.1923 12.2699 13.0679C12.2708 12.9101 12.2739 12.4917 13.6727 11.7826C14.1702 11.5304 15.1677 11.0904 16.2574 10.9776C18.0627 10.7911 19.2527 11.5951 19.6089 13.242C20.5705 17.6883 19.6852 19.6548 19.0386 21.0911C18.9183 21.3586 18.8045 21.6111 18.7136 21.8558L18.6333 22.0714C18.2917 22.9873 17.9964 23.7786 18.087 24.3695C18.097 24.4342 18.0941 24.5003 18.0785 24.5639C18.0629 24.6275 18.035 24.6874 17.9962 24.7402C17.9575 24.793 17.9087 24.8376 17.8527 24.8715C17.7967 24.9055 17.7346 24.928 17.6699 24.9379L17.5936 24.9442ZM13.2702 13.2061L13.2895 13.562C13.3445 14.4914 13.447 16.2208 13.1695 18.2058C12.9692 19.6386 13.4067 21.037 14.3705 22.042C15.132 22.8364 16.1342 23.2748 17.1642 23.2748H17.1855C17.3008 22.7889 17.4924 22.2758 17.6986 21.7229L17.7783 21.5086C17.8811 21.2323 18.0014 20.9648 18.1289 20.6817C18.7511 19.2992 19.5258 17.5783 18.6336 13.4529C18.457 12.6358 18.0286 12.1629 17.3245 12.007C15.8783 11.6876 13.723 12.7754 13.2702 13.2061ZM16.2795 12.9945C16.2545 13.1708 16.6024 13.6414 17.0561 13.7042C17.5089 13.7676 17.8964 13.3995 17.9211 13.2233C17.9458 13.047 17.5983 12.8526 17.1445 12.7895C16.6908 12.7264 16.3036 12.8183 16.2795 12.9945ZM17.1602 13.8776L17.033 13.8689C16.7517 13.8298 16.4674 13.6526 16.2727 13.3945C16.2042 13.3039 16.0927 13.1283 16.1149 12.9714C16.1464 12.7414 16.427 12.6036 16.8649 12.6036C16.9627 12.6036 17.0645 12.6108 17.167 12.6251C17.4064 12.6583 17.6286 12.7273 17.7927 12.8189C18.077 12.9776 18.098 13.1548 18.0852 13.2464C18.0502 13.5004 17.6461 13.8776 17.1602 13.8776ZM16.4449 13.0239C16.4589 13.1326 16.7283 13.4914 17.0789 13.5398L17.1605 13.5454C17.4842 13.5454 17.7261 13.2908 17.7545 13.2073C17.7245 13.1504 17.5164 13.0092 17.1217 12.9542C17.0367 12.9422 16.951 12.936 16.8652 12.9358C16.6114 12.9358 16.4767 12.9929 16.4449 13.0239ZM30.0714 12.6348C30.0961 12.8111 29.7486 13.2817 29.2952 13.3448C28.842 13.4079 28.4542 13.0401 28.4292 12.8639C28.4055 12.6876 28.753 12.4929 29.2061 12.4301C29.6592 12.3667 30.0464 12.4589 30.0714 12.6348ZM29.1905 13.4348C28.7542 13.4348 28.3777 13.0954 28.3467 12.8751C28.3108 12.6108 28.7461 12.4098 29.1942 12.3476C29.293 12.3339 29.3908 12.327 29.4849 12.327C29.8717 12.327 30.128 12.4404 30.1536 12.6236C30.1702 12.742 30.0792 12.9248 29.9227 13.0898C29.8192 13.1983 29.602 13.3861 29.3061 13.427L29.1905 13.4348ZM29.4852 12.4933C29.3985 12.4933 29.3093 12.4996 29.2177 12.5123C28.7674 12.5751 28.4986 12.7558 28.5117 12.8526C28.5267 12.9592 28.8142 13.2689 29.1908 13.2689L29.2836 13.2623C29.5295 13.2283 29.7142 13.0676 29.8024 12.9751C29.9408 12.8298 29.9958 12.6929 29.9892 12.6464C29.9805 12.5845 29.8142 12.4933 29.4852 12.4933ZM30.7242 22.7567C30.6339 22.7567 30.5452 22.7322 30.4678 22.6858C30.3903 22.6393 30.3269 22.5727 30.2844 22.4929C30.2419 22.4132 30.2219 22.3235 30.2265 22.2332C30.2311 22.143 30.2601 22.0557 30.3105 21.9808C31.3724 20.3948 31.178 18.7776 30.9902 17.2136C30.9099 16.5473 30.8274 15.8583 30.8486 15.197C30.8705 14.5167 30.957 13.9554 31.0405 13.4126C31.1395 12.7695 31.2333 12.162 31.1945 11.4408C31.191 11.3754 31.2004 11.31 31.2222 11.2482C31.2439 11.1865 31.2776 11.1296 31.3213 11.0809C31.3651 11.0322 31.418 10.9925 31.477 10.9642C31.5361 10.936 31.6001 10.9196 31.6655 10.9161C31.7309 10.9125 31.7963 10.9219 31.858 10.9437C31.9198 10.9654 31.9766 10.9991 32.0254 11.0429C32.1238 11.1312 32.183 11.255 32.1902 11.387C32.2345 12.2114 32.1286 12.8989 32.0261 13.5642C31.947 14.0776 31.8652 14.6086 31.8455 15.2289C31.8264 15.8145 31.9011 16.4364 31.9802 17.0945C32.1802 18.7576 32.4067 20.6426 31.1392 22.5354C31.0935 22.6035 31.0317 22.6593 30.9594 22.6979C30.887 22.7365 30.8062 22.7567 30.7242 22.7567Z" fill="white"/>
</svg>
