<svg width="42" height="41" viewBox="0 0 42 41" fill="none" xmlns="http://www.w3.org/2000/svg">
<g clip-path="url(#clip0_44_464)">
<path d="M1.58691 0.779297V39.6052H40.4128V0.779297H1.58691ZM14.5289 20.1922H24.2354V23.4277H20.9999V36.3697H17.7644V23.4277H14.5289V20.1922ZM30.7063 20.1922H37.1773V23.4277H30.7063V26.6632H33.9418C34.7991 26.6658 35.6206 27.0075 36.2268 27.6137C36.8331 28.2199 37.1748 29.0414 37.1773 29.8987V33.1342C37.1748 33.9915 36.8331 34.813 36.2268 35.4192C35.6206 36.0254 34.7991 36.3671 33.9418 36.3697H27.4708V33.1342H33.9418V29.8987H30.7063C29.849 29.8962 29.0275 29.5545 28.4213 28.9482C27.8151 28.342 27.4734 27.5205 27.4708 26.6632V23.4277C27.4734 22.5704 27.8151 21.7489 28.4213 21.1427C29.0275 20.5365 29.849 20.1948 30.7063 20.1922Z" fill="#0288D1"/>
</g>
<defs>
<clipPath id="clip0_44_464">
<rect width="42" height="40.3846" fill="white"/>
</clipPath>
</defs>
</svg>
