<svg width="393" height="117" viewBox="0 0 393 117" fill="none" xmlns="http://www.w3.org/2000/svg">
<ellipse cx="334.673" cy="60.8348" rx="13.7755" ry="13.6903" fill="#1D1D1D"/>
<ellipse cx="333.491" cy="54.7327" rx="20.151" ry="20.0264" fill="#CD82FE"/>
<mask id="path-3-outside-1_31_165" maskUnits="userSpaceOnUse" x="239.258" y="0.000976562" width="158" height="118" fill="black">
<rect fill="white" x="239.258" y="0.000976562" width="158" height="118"/>
<path d="M338.103 5.00098C367.834 5.00103 391.936 28.9543 391.937 58.502C391.936 88.0496 367.834 112.003 338.103 112.003H244.258V5.00098H338.103ZM282.16 76.5977H313.39C330.216 76.5976 348.897 77.7631 348.897 58.502C348.897 39.2408 330.216 39.2413 313.39 39.2412H282.16V76.5977Z"/>
</mask>
<path d="M338.103 5.00098C367.834 5.00103 391.936 28.9543 391.937 58.502C391.936 88.0496 367.834 112.003 338.103 112.003H244.258V5.00098H338.103ZM282.16 76.5977H313.39C330.216 76.5976 348.897 77.7631 348.897 58.502C348.897 39.2408 330.216 39.2413 313.39 39.2412H282.16V76.5977Z" fill="#CD82FE"/>
<path d="M338.103 5.00098L338.103 0.000976562H338.103V5.00098ZM391.937 58.502L396.937 58.502V58.5019L391.937 58.502ZM338.103 112.003V117.003H338.103L338.103 112.003ZM244.258 112.003H239.258V117.003H244.258V112.003ZM244.258 5.00098V0.000976562H239.258V5.00098H244.258ZM282.16 76.5977H277.16V81.5977H282.16V76.5977ZM313.39 76.5977V81.5977H313.39L313.39 76.5977ZM348.897 58.502H353.897V58.5019L348.897 58.502ZM313.39 39.2412L313.39 34.2412H313.39V39.2412ZM282.16 39.2412V34.2412H277.16V39.2412H282.16ZM338.103 5.00098L338.103 10.001C365.102 10.001 386.936 31.7449 386.937 58.502L391.937 58.502L396.937 58.5019C396.936 26.1637 370.566 0.00103378 338.103 0.000976562L338.103 5.00098ZM391.937 58.502L386.937 58.5019C386.936 85.2589 365.102 107.003 338.103 107.003L338.103 112.003L338.103 117.003C370.566 117.003 396.936 90.8402 396.937 58.502L391.937 58.502ZM338.103 112.003V107.003H244.258V112.003V117.003H338.103V112.003ZM244.258 112.003H249.258V5.00098H244.258H239.258V112.003H244.258ZM244.258 5.00098V10.001H338.103V5.00098V0.000976562H244.258V5.00098ZM282.16 76.5977V81.5977H313.39V76.5977V71.5977H282.16V76.5977ZM313.39 76.5977L313.39 81.5977C321.36 81.5976 331.246 81.9504 338.945 79.5452C342.971 78.2872 346.842 76.1651 349.668 72.5179C352.516 68.842 353.897 64.1431 353.897 58.502H348.897H343.897C343.897 62.4914 342.943 64.8698 341.763 66.3925C340.561 67.944 338.71 69.142 335.962 70.0002C330.114 71.8276 322.246 71.5976 313.39 71.5977L313.39 76.5977ZM348.897 58.502L353.897 58.5019C353.897 52.8543 352.515 48.1302 349.728 44.3829C346.961 40.6626 343.155 38.3688 339.128 36.9374C331.371 34.1804 321.525 34.2412 313.39 34.2412L313.39 39.2412L313.39 44.2412C322.08 44.2412 329.989 44.3019 335.779 46.3599C338.525 47.3361 340.442 48.6536 341.703 50.3504C342.945 52.0202 343.897 54.519 343.897 58.502L348.897 58.502ZM313.39 39.2412V34.2412H282.16V39.2412V44.2412H313.39V39.2412ZM282.16 39.2412H277.16V76.5977H282.16H287.16V39.2412H282.16Z" fill="black" mask="url(#path-3-outside-1_31_165)"/>
<ellipse cx="211.172" cy="54.7327" rx="20.151" ry="20.0264" fill="#93F4D8"/>
<mask id="path-6-outside-2_31_165" maskUnits="userSpaceOnUse" x="116.938" y="0.000976562" width="158" height="118" fill="black">
<rect fill="white" x="116.938" y="0.000976562" width="158" height="118"/>
<path d="M215.783 5.00098C245.515 5.00103 269.617 28.9543 269.617 58.502C269.617 88.0496 245.515 112.003 215.783 112.003H121.938V5.00098H215.783ZM159.841 76.5977H191.07C207.897 76.5976 226.578 77.7631 226.578 58.502C226.578 39.2408 207.897 39.2413 191.07 39.2412H159.841V76.5977Z"/>
</mask>
<path d="M215.783 5.00098C245.515 5.00103 269.617 28.9543 269.617 58.502C269.617 88.0496 245.515 112.003 215.783 112.003H121.938V5.00098H215.783ZM159.841 76.5977H191.07C207.897 76.5976 226.578 77.7631 226.578 58.502C226.578 39.2408 207.897 39.2413 191.07 39.2412H159.841V76.5977Z" fill="#93F4D8"/>
<path d="M215.783 5.00098L215.783 0.000976562H215.783V5.00098ZM269.617 58.502L274.617 58.502V58.5019L269.617 58.502ZM215.783 112.003V117.003H215.783L215.783 112.003ZM121.938 112.003H116.938V117.003H121.938V112.003ZM121.938 5.00098V0.000976562H116.938V5.00098H121.938ZM159.841 76.5977H154.841V81.5977H159.841V76.5977ZM191.07 76.5977V81.5977H191.07L191.07 76.5977ZM226.578 58.502H231.578V58.5019L226.578 58.502ZM191.07 39.2412L191.07 34.2412H191.07V39.2412ZM159.841 39.2412V34.2412H154.841V39.2412H159.841ZM215.783 5.00098L215.783 10.001C242.783 10.001 264.617 31.7449 264.617 58.502L269.617 58.502L274.617 58.5019C274.617 26.1637 248.247 0.00103378 215.783 0.000976562L215.783 5.00098ZM269.617 58.502L264.617 58.5019C264.617 85.2589 242.783 107.003 215.783 107.003L215.783 112.003L215.783 117.003C248.247 117.003 274.617 90.8402 274.617 58.502L269.617 58.502ZM215.783 112.003V107.003H121.938V112.003V117.003H215.783V112.003ZM121.938 112.003H126.938V5.00098H121.938H116.938V112.003H121.938ZM121.938 5.00098V10.001H215.783V5.00098V0.000976562H121.938V5.00098ZM159.841 76.5977V81.5977H191.07V76.5977V71.5977H159.841V76.5977ZM191.07 76.5977L191.07 81.5977C199.04 81.5976 208.927 81.9504 216.625 79.5452C220.652 78.2872 224.522 76.1651 227.348 72.5179C230.197 68.842 231.578 64.1431 231.578 58.502H226.578H221.578C221.578 62.4914 220.624 64.8698 219.444 66.3925C218.242 67.944 216.39 69.142 213.643 70.0002C207.794 71.8276 199.927 71.5976 191.07 71.5977L191.07 76.5977ZM226.578 58.502L231.578 58.5019C231.578 52.8543 230.195 48.1302 227.408 44.3829C224.642 40.6626 220.836 38.3688 216.809 36.9374C209.052 34.1804 199.206 34.2412 191.07 34.2412L191.07 39.2412L191.07 44.2412C199.761 44.2412 207.669 44.3019 213.46 46.3599C216.206 47.3361 218.122 48.6536 219.384 50.3504C220.626 52.0202 221.578 54.519 221.578 58.502L226.578 58.502ZM191.07 39.2412V34.2412H159.841V39.2412V44.2412H191.07V39.2412ZM159.841 39.2412H154.841V76.5977H159.841H164.841V39.2412H159.841Z" fill="black" mask="url(#path-6-outside-2_31_165)"/>
<ellipse cx="89.233" cy="54.7317" rx="20.151" ry="20.0264" fill="#CDF493"/>
<mask id="path-9-outside-3_31_165" maskUnits="userSpaceOnUse" x="-5" y="0" width="158" height="118" fill="black">
<rect fill="white" x="-5" width="158" height="118"/>
<path d="M93.8447 5C123.576 5.00005 147.679 28.9533 147.679 58.501C147.679 88.0486 123.576 112.002 93.8447 112.002H0V5H93.8447ZM37.9023 76.5967H69.1318C85.9584 76.5966 104.64 77.7622 104.64 58.501C104.64 39.2398 85.9584 39.2403 69.1318 39.2402H37.9023V76.5967Z"/>
</mask>
<path d="M93.8447 5C123.576 5.00005 147.679 28.9533 147.679 58.501C147.679 88.0486 123.576 112.002 93.8447 112.002H0V5H93.8447ZM37.9023 76.5967H69.1318C85.9584 76.5966 104.64 77.7622 104.64 58.501C104.64 39.2398 85.9584 39.2403 69.1318 39.2402H37.9023V76.5967Z" fill="#CDF493"/>
<path d="M93.8447 5L93.8447 0H93.8447V5ZM147.679 58.501L152.679 58.501V58.501L147.679 58.501ZM93.8447 112.002V117.002H93.8447L93.8447 112.002ZM0 112.002H-5V117.002H0V112.002ZM0 5V0H-5V5H0ZM37.9023 76.5967H32.9023V81.5967H37.9023V76.5967ZM69.1318 76.5967V81.5967H69.1319L69.1318 76.5967ZM104.64 58.501H109.64V58.501L104.64 58.501ZM69.1318 39.2402L69.1319 34.2402H69.1318V39.2402ZM37.9023 39.2402V34.2402H32.9023V39.2402H37.9023ZM93.8447 5L93.8447 10C120.844 10 142.679 31.744 142.679 58.501L147.679 58.501L152.679 58.501C152.679 26.1627 126.308 5.72205e-05 93.8447 0L93.8447 5ZM147.679 58.501L142.679 58.501C142.679 85.258 120.844 107.002 93.8447 107.002L93.8447 112.002L93.8447 117.002C126.308 117.002 152.679 90.8392 152.679 58.501L147.679 58.501ZM93.8447 112.002V107.002H0V112.002V117.002H93.8447V112.002ZM0 112.002H5V5H0H-5V112.002H0ZM0 5V10H93.8447V5V0H0V5ZM37.9023 76.5967V81.5967H69.1318V76.5967V71.5967H37.9023V76.5967ZM69.1318 76.5967L69.1319 81.5967C77.1018 81.5966 86.9884 81.9494 94.6868 79.5443C98.7133 78.2863 102.584 76.1641 105.41 72.5169C108.259 68.841 109.64 64.1421 109.64 58.501H104.64H99.6396C99.6396 62.4904 98.6856 64.8688 97.5056 66.3916C96.3033 67.943 94.4518 69.141 91.7047 69.9993C85.8557 71.8266 77.9884 71.5966 69.1318 71.5967L69.1318 76.5967ZM104.64 58.501L109.64 58.501C109.64 52.8533 108.257 48.1293 105.47 44.382C102.703 40.6616 98.8975 38.3679 94.8702 36.9364C87.1132 34.1794 77.2676 34.2403 69.1319 34.2402L69.1318 39.2402L69.1318 44.2402C77.8226 44.2403 85.7309 44.3009 91.5212 46.359C94.2675 47.3351 96.1838 48.6527 97.4456 50.3494C98.6874 52.0193 99.6396 54.5181 99.6396 58.501L104.64 58.501ZM69.1318 39.2402V34.2402H37.9023V39.2402V44.2402H69.1318V39.2402ZM37.9023 39.2402H32.9023V76.5967H37.9023H42.9023V39.2402H37.9023Z" fill="black" mask="url(#path-9-outside-3_31_165)"/>
</svg>
