<svg xmlns="http://www.w3.org/2000/svg" width="150" height="22" fill="none" viewBox="0 0 150 22"><path fill="#fff" d="M14.2 17.003 5.623 2.087c-.014-.027-.03-.052-.044-.077l-.004-.008A2.985 2.985 0 0 0 2.989.5a2.995 2.995 0 0 0-2.989 3C0 4.048.148 4.56.403 5l8.572 14.91c.017.032.036.063.053.093a2.983 2.983 0 0 0 2.584 1.499 2.995 2.995 0 0 0 2.586-4.5l.002.001ZM20.467 6.124c.62-.01 1.19-.222 1.647-.572a2.804 2.804 0 0 0 1.112-2.24A2.807 2.807 0 0 0 20.425.497a2.81 2.81 0 0 0-2.801 2.815 2.791 2.791 0 0 0 .407 1.457 1.86 1.86 0 0 1 .14 1.415 1.86 1.86 0 0 1-3.647-.534c0-.319.078-.62.217-.881a2.791 2.791 0 0 0 .407-1.457A2.816 2.816 0 0 0 13.442.72h-.004a2.784 2.784 0 0 0-2.584.212A2.812 2.812 0 0 0 9.546 3.31c0 .916.436 1.731 1.115 2.244a2.79 2.79 0 0 0 1.643.57h.087a1.856 1.856 0 0 1 1.637 1.06c.118.242.184.515.184.805a1.9 1.9 0 0 1-.219.885 2.817 2.817 0 0 0-.407 1.46 2.81 2.81 0 0 0 2.801 2.812c.47 0 .912-.116 1.3-.321a2.81 2.81 0 0 0 1.501-2.492 2.817 2.817 0 0 0-.407-1.46 1.9 1.9 0 0 1-.219-.884c0-.29.066-.563.184-.806a1.852 1.852 0 0 1 1.635-1.06h.088-.002ZM40.409 21.166l-7.38-19.578h4.512l5.124 14.543 4.847-14.543h4.178l-7.13 19.578H40.41ZM58.902 21.502c-1.336 0-2.566-.276-3.69-.825-1.123-.55-2.018-1.39-2.686-2.517-.669-1.127-1.003-2.55-1.003-4.265v-.56c0-1.64.32-3 .96-4.083.64-1.081 1.5-1.892 2.577-2.433 1.076-.541 2.265-.81 3.564-.81 2.32 0 4.085.614 5.292 1.845 1.207 1.23 1.81 3.012 1.81 5.342v1.566H55.282c.037.877.226 1.59.571 2.14.343.55.784.95 1.322 1.202a4.015 4.015 0 0 0 1.727.378c.947 0 1.662-.14 2.144-.42.483-.28.826-.69 1.03-1.232h3.37c-.296 1.548-1.03 2.713-2.2 3.497-1.17.783-2.618 1.175-4.345 1.175h.001Zm-.139-12.475c-.576 0-1.132.094-1.67.279a2.466 2.466 0 0 0-1.28.992c-.316.475-.492 1.106-.53 1.888h6.88c-.02-.839-.181-1.486-.487-1.944a2.387 2.387 0 0 0-1.212-.95c-.501-.178-1.068-.265-1.699-.265h-.002ZM68.399 21.166V6.342h3.341v2.21a4.63 4.63 0 0 1 2.144-2.153 3.8 3.8 0 0 1 1.727-.392c.353 0 .654.019.906.056.251.038.412.075.487.112v3.272a5.002 5.002 0 0 0-.71-.21c-.29-.066-.673-.097-1.156-.097-.743 0-1.341.158-1.797.475a2.692 2.692 0 0 0-.989 1.245 4.451 4.451 0 0 0-.306 1.663v8.643h-3.649.002ZM81.35 4.915c-.65 0-1.184-.205-1.603-.614-.418-.41-.626-.941-.626-1.595s.21-1.184.626-1.595c.419-.409.942-.614 1.574-.614.668 0 1.212.205 1.63.614.419.411.626.943.626 1.595s-.209 1.184-.626 1.595c-.418.41-.952.614-1.602.614Zm-1.81 16.251V6.342h3.649v14.824h-3.65ZM86.808 21.166V1.588h3.649v6.796c.223-.373.534-.742.932-1.106.4-.363.901-.666 1.504-.91.603-.24 1.332-.363 2.186-.363 1.8 0 3.141.485 4.024 1.454.882.969 1.322 2.367 1.322 4.196v9.51H96.75v-8.643c0-1.101-.228-1.94-.683-2.517-.456-.577-1.23-.867-2.325-.867-.779 0-1.411.158-1.894.475a2.805 2.805 0 0 0-1.058 1.245 4.122 4.122 0 0 0-.335 1.664v8.643h-3.649l.002.001ZM108.699 21.502c-1.708 0-2.998-.49-3.871-1.468-.873-.978-1.308-2.493-1.308-4.546V6.342h3.649v8.643c0 1.12.218 1.963.654 2.53.436.57 1.174.854 2.214.854.742 0 1.341-.159 1.797-.475a2.91 2.91 0 0 0 1.017-1.231 4.099 4.099 0 0 0 .334-1.678V6.342h3.676v14.824h-3.398v-2.21c-.353.69-.915 1.287-1.685 1.791-.771.504-1.797.756-3.077.756l-.002-.001ZM128.418 21.502c-1.226 0-2.237-.253-3.035-.756s-1.384-1.091-1.755-1.763v2.181h-3.398V1.588h3.649v6.796a5.322 5.322 0 0 1 1.852-1.72c.77-.438 1.666-.657 2.687-.657 1.968 0 3.504.611 4.609 1.831 1.104 1.222 1.657 3.053 1.657 5.496v.56c0 1.696-.256 3.109-.765 4.236-.511 1.13-1.23 1.971-2.158 2.531-.929.56-2.042.839-3.341.839l-.002.002Zm-.863-3.133c.965 0 1.772-.369 2.423-1.106.65-.737.974-1.86.974-3.37v-.56c0-1.398-.31-2.447-.932-3.146-.623-.7-1.444-1.049-2.465-1.049-.706 0-1.337.135-1.894.406a3.03 3.03 0 0 0-1.309 1.203c-.315.531-.473 1.207-.473 2.027v1.678c0 .876.153 1.609.459 2.195.306.588.739 1.02 1.295 1.3.555.28 1.197.42 1.922.42v.002ZM143.317 21.502c-1.207 0-2.219-.126-3.035-.378-.817-.253-1.49-.596-2.019-1.035-.53-.438-.92-.936-1.17-1.496a5.46 5.46 0 0 1-.459-1.762h3.676c.092.484.381.88.863 1.188.483.307 1.198.461 2.144.461 1.077 0 1.847-.149 2.313-.447.463-.298.696-.68.696-1.146 0-.336-.103-.61-.306-.825-.205-.215-.567-.401-1.087-.56-.52-.158-1.254-.321-2.2-.489a15.765 15.765 0 0 1-2.242-.46 6.24 6.24 0 0 1-1.797-.826 3.75 3.75 0 0 1-1.212-1.328c-.287-.531-.431-1.179-.431-1.944 0-.82.245-1.566.739-2.237.492-.672 1.207-1.208 2.144-1.61.936-.4 2.065-.6 3.383-.6 1.43 0 2.572.224 3.426.671.854.447 1.494 1.026 1.922 1.735.426.708.687 1.464.779 2.265h-3.675c-.149-.54-.438-.95-.864-1.23-.428-.28-.957-.42-1.588-.42-.929 0-1.593.143-1.991.434-.399.288-.599.647-.599 1.077 0 .43.218.793.654 1.035.436.243 1.332.458 2.687.643.836.11 1.61.275 2.325.489a7.137 7.137 0 0 1 1.88.853c.539.354.96.796 1.268 1.328.306.531.459 1.179.459 1.944 0 .914-.247 1.72-.739 2.42-.491.699-1.235 1.25-2.228 1.649-.993.401-2.233.602-3.717.602l.001-.001Z"/></svg>